# xmcd CD database file
#
# Track frame offsets:
#	187
#	18612
#	39477
#	57850
#
# Disc length: 1049 seconds
#
# Revision: 1
# Processed by: cddbd v1.5.1PL0 Copyright (c) Steve Scherf et al.
# Submitted via: CDex 1.51
#
DISCID=2c041704
DTITLE=ビートたけし - 嘲笑
DYEAR=1993
DGENRE=J ポップ
TTITLE0=嘲笑
TTITLE1=風の街のジュウちゃん
TTITLE2=嘲笑(オリジナル・カラオケ)
TTITLE3=風の街のジュウちゃん
EXTD=YEAR: 1993
EXTT0=
EXTT1=
EXTT2=
EXTT3=
PLAYORDER=
